<?xml version="1.0" encoding="UTF-8"?>
<svg id="Layer_2" data-name="Layer 2" xmlns="http://www.w3.org/2000/svg" viewBox="0 0 297.88 61.06">
  <defs>
    <style>
      .cls-1 {
        fill: #fbd8ee;
      }

      .cls-2 {
        fill: #fc4698;
        stroke: #6d53f9;
        stroke-miterlimit: 10;
        stroke-width: 3px;
      }
    </style>
  </defs>
  <g id="hero_section_logo" data-name="hero section logo">
    <path class="cls-2" d="M191.84,59.08h9.12c2.13,0,4.06-.83,5.49-2.18,1.43,1.35,3.36,2.18,5.49,2.18h9.12c2.14,0,4.08-.84,5.52-2.21,1.44,1.37,3.38,2.21,5.52,2.21h9.12c2.5,0,4.74-1.15,6.2-2.95,3.72,2.2,8.29,3.43,13.48,3.43,4.91,0,9.24-1.06,12.75-2.97,1.46,1.53,3.51,2.49,5.79,2.49h8.94c4.42,0,8-3.58,8-8v-9c0-2.29-.96-4.35-2.5-5.81l2.37-17.28c.05-.36.07-.72.07-1.09v-7.14c0-4.42-3.58-8-8-8h-8.88c-4.42,0-8,3.58-8,8v4.42c-3.01-1.43-6.49-2.22-10.36-2.22-6.69,0-12.37,2.04-16.53,5.64-3.19-3.57-7.85-5.64-13.47-5.64-3.81,0-7.21.92-10.02,2.62-2.83-1.69-6.3-2.62-10.2-2.62-2.41,0-4.66.39-6.7,1.15-1-.44-2.09-.67-3.2-.67h-9.12c-3.43.2-4.93,1.31-5.66,2.34-1.45,2.04-.66,4.9-2.34,5.66-.5.23-1.14.23-1.64,0-1.68-.76-.9-3.62-2.34-5.66-.73-1.03-2.23-2.14-5.66-2.34h-1.58c-.61-3.81-3.92-6.72-7.9-6.72h-7.5c-3.96,0-7.3,2.9-7.9,6.77-.28-.03-.57-.05-.86-.05h-9.12c-3.03,0-5.66,1.68-7.02,4.16-1.36-2.48-3.99-4.16-7.02-4.16h-9.12c-2.53,0-4.78,1.18-6.25,3.01-3.76-2.25-8.37-3.49-13.61-3.49-7.19,0-13.2,2.33-17.42,6.38-3.76-4.05-9.16-6.38-15.64-6.38-.73,0-1.44.03-2.14.09v-3.55c0-4.42-3.58-8-8-8h-9.12c-4.42,0-8,3.58-8,8v5.6c-3.23-1.39-7.04-2.14-11.32-2.14C8.23,12.96,2.4,22.41,2.4,30.5c0,1.06.1,2.07.18,2.73.09.74.28,1.45.56,2.11-1.14,2.32-1.64,4.83-1.64,7.22,0,10.17,7.92,17,19.7,17,2.4,0,4.62-.32,6.61-.94.85.3,1.76.46,2.68.46h9.12c.76,0,1.49-.11,2.19-.31.7.2,1.43.31,2.19.31h9.12c1.03,0,2.04-.2,2.98-.58,2.16.69,4.54,1.06,7.1,1.06,6.5,0,11.85-2.33,15.59-6.45,4.23,4.1,10.28,6.45,17.53,6.45s12.78-2.16,16.98-5.95c3.55,3.81,8.8,5.95,15.36,5.95,2.67,0,5.14-.41,7.36-1.2,1.03.47,2.16.72,3.32.72h9.12c2.58,0,4.87-1.23,6.33-3.12,3.4,2.33,7.9,3.6,13.35,3.6,3.72,0,7.3-.41,7.69-.5l16.01.02Z"/>
    <path class="cls-1" d="M9.5,42.56c0-4.86,3.48-8.4,11.34-8.4h9.66v-1.98c0-3.6-2.04-5.04-6.24-5.04-3.42,0-5.4,1.44-5.4,3.84,0,.18,0,.66.06,1.26h-8.4c-.06-.48-.12-1.14-.12-1.74,0-6,5.28-9.54,14.28-9.54s14.94,4.2,14.94,12.12v18h-9.12c.18-1.5.42-4.2.42-6h-.06c-.9,4.2-4.26,6.48-9.66,6.48-6.9,0-11.7-3-11.7-9ZM30.5,39.68v-.6h-8.82c-2.46,0-3.96,1.14-3.96,2.82,0,2.28,1.98,3.48,5.28,3.48,4.74,0,7.5-2.1,7.5-5.7Z"/>
    <path class="cls-1" d="M52.88,45.5h-.06c.06,1.74.18,4.14.3,5.58h-9.12V9.5h9.12v12.42c0,1.38-.12,3.84-.18,5.28h.12c1.14-3.9,4.92-6.24,10.2-6.24,8.46,0,13.44,5.46,13.44,14.7,0,10.02-5.04,15.9-13.5,15.9-5.4,0-9.24-2.28-10.32-6.06ZM67.58,35.96c0-5.04-2.52-8.04-6.78-8.04-4.8,0-7.68,3.06-7.68,8.16v1.38c0,4.5,2.88,7.14,7.74,7.14,4.2,0,6.72-3.18,6.72-8.64Z"/>
    <path class="cls-1" d="M80.18,36.32c0-9.66,6.36-15.36,16.14-15.36s16.14,5.7,16.14,15.36-6.36,15.24-16.14,15.24-16.14-5.64-16.14-15.24ZM103.34,36.32c0-5.28-2.58-8.4-7.02-8.4s-7.02,3.12-7.02,8.4,2.58,8.28,7.02,8.28,7.02-3.06,7.02-8.28Z"/>
    <path class="cls-1" d="M116.18,39.02v-17.58h9.12v16.5c0,4.14,2.28,6.06,6.18,6.06,4.92,0,7.86-3.24,7.86-9.72v-12.84h9.12v29.64h-9.12c.18-2.04.36-4.5.42-7.74h-.12c-1.32,5.7-5.34,8.22-10.98,8.22-7.68,0-12.48-3.84-12.48-12.54Z"/>
    <path class="cls-1" d="M155.6,40.88v-12.36h-4.38v-7.08h3.54c1.38,0,1.86-.78,2.04-2.58l.42-4.14h7.5v6.72h9.48v7.08h-9.48v11.88c0,3.06,1.44,4.02,5.04,4.02,1.26,0,3.12-.18,4.14-.42v6.9c-.78.18-3.3.66-5.76.66-9.24,0-12.54-4.08-12.54-10.68Z"/>
    <path class="cls-1" d="M191.84,21.44h9.12l-.3,7.68h.06c1.38-5.1,4.74-8.16,10.14-8.16,5.7,0,9.36,2.94,10.02,7.74h.06c1.2-4.8,4.44-7.74,10.14-7.74,6.48,0,10.14,4.08,10.14,11.04v19.08h-9.12v-16.98c0-3.48-1.8-5.58-4.92-5.58-3.6,0-6.12,2.76-6.12,8.22v14.34h-9.12v-16.98c0-3.48-1.8-5.58-4.92-5.58-3.54,0-6.06,2.82-6.06,8.4v14.16h-9.12v-29.64Z"/>
    <path class="cls-1" d="M275.18,38h-21.06c.42,4.86,2.88,6.96,6.96,6.96,3.54,0,5.82-1.26,6.06-4.14h8.04c-.18,6.78-5.82,10.74-14.28,10.74-9.84,0-15.96-5.58-15.96-15s6.12-15.6,16.14-15.6c8.28,0,14.1,4.74,14.1,14.46v2.58ZM267.14,32.66c0-3.36-2.28-5.1-6.06-5.1s-6,1.68-6.72,5.58h12.78v-.48Z"/>
    <path class="cls-1" d="M279.44,17.9v-7.14h8.88v7.14l-2.64,19.26h-3.48l-2.76-19.26ZM279.44,42.08h8.94v9h-8.94v-9Z"/>
  </g>
</svg>