<?xml version="1.0" encoding="UTF-8"?>
<svg id="Layer_2" data-name="Layer 2" xmlns="http://www.w3.org/2000/svg" viewBox="0 0 284.68 61.06">
  <defs>
    <style>
      .cls-1 {
        fill: #fbd8ee;
        stroke: #6d53f9;
        stroke-miterlimit: 10;
        stroke-width: 3px;
      }

      .cls-2 {
        fill: #fc4698;
      }
    </style>
  </defs>
  <g id="hero_section_logo" data-name="hero section logo">
    <g>
      <path class="cls-1" d="M183.84,21.44c1.68-.76.9-3.62,2.34-5.66.73-1.03,2.23-2.14,5.66-2.34h9.12c1.11,0,2.2.23,3.2.67,2.05-.75,4.29-1.15,6.7-1.15,3.89,0,7.36.93,10.2,2.62,2.81-1.71,6.21-2.62,10.02-2.62,5.62,0,10.28,2.07,13.47,5.64,4.16-3.59,9.84-5.64,16.53-5.64,13.22,0,22.1,9.03,22.1,22.46v2.58c0,.48-.04.96-.12,1.41.09.53.14,1.07.12,1.62-.29,11.08-9.25,18.53-22.28,18.53-5.19,0-9.76-1.23-13.48-3.43-1.47,1.8-3.7,2.95-6.2,2.95h-9.12c-2.14,0-4.08-.84-5.52-2.21-1.44,1.37-3.38,2.21-5.52,2.21h-9.12c-2.13,0-4.06-.83-5.49-2.18-1.43,1.35-3.36,2.18-5.49,2.18h-9.12l-16.14-.38c-.38.09-3.86.86-7.56.86-5.45,0-9.95-1.27-13.35-3.6-1.46,1.89-3.75,3.12-6.33,3.12h-9.12c-1.16,0-2.29-.25-3.32-.72-2.22.79-4.69,1.2-7.36,1.2-6.56,0-11.81-2.14-15.36-5.95-4.2,3.79-10.04,5.95-16.98,5.95s-13.3-2.35-17.53-6.45c-3.74,4.12-9.09,6.45-15.59,6.45-2.56,0-4.94-.37-7.1-1.06-.94.38-1.95.58-2.98.58h-9.12c-.76,0-1.49-.11-2.19-.31-.7.2-1.43.31-2.19.31h-9.12c-.92,0-1.83-.16-2.68-.46-2,.62-4.22.94-6.62.94-11.78,0-19.7-6.83-19.7-17,0-2.39.5-4.9,1.64-7.22-.28-.66-.47-1.36-.56-2.1-.08-.66-.18-1.68-.18-2.73,0-8.09,5.83-17.54,22.28-17.54,4.28,0,8.09.75,11.32,2.14v-5.6c0-4.42,3.58-8,8-8h9.12c4.42,0,8,3.58,8,8v3.55c.7-.06,1.41-.09,2.14-.09,6.48,0,11.87,2.33,15.64,6.38,4.23-4.06,10.24-6.38,17.42-6.38,5.24,0,9.86,1.24,13.61,3.49,1.47-1.83,3.72-3.01,6.25-3.01h9.12c3.03,0,5.66,1.68,7.02,4.16,1.36-2.48,3.99-4.16,7.02-4.16h9.12c.29,0,.58.02.86.05.6-3.87,3.94-6.77,7.9-6.77h7.5c3.98,0,7.29,2.91,7.9,6.72h1.58c3.43.2,4.93,1.31,5.66,2.34,1.45,2.04.66,4.9,2.34,5.66.5.23,1.14.23,1.64,0Z"/>
      <g>
        <path class="cls-2" d="M9.5,42.56c0-4.86,3.48-8.4,11.34-8.4h9.66v-1.98c0-3.6-2.04-5.04-6.24-5.04-3.42,0-5.4,1.44-5.4,3.84,0,.18,0,.66.06,1.26h-8.4c-.06-.48-.12-1.14-.12-1.74,0-6,5.28-9.54,14.28-9.54s14.94,4.2,14.94,12.12v18h-9.12c.18-1.5.42-4.2.42-6h-.06c-.9,4.2-4.26,6.48-9.66,6.48-6.9,0-11.7-3-11.7-9ZM30.5,39.68v-.6h-8.82c-2.46,0-3.96,1.14-3.96,2.82,0,2.28,1.98,3.48,5.28,3.48,4.74,0,7.5-2.1,7.5-5.7Z"/>
        <path class="cls-2" d="M52.88,45.5h-.06c.06,1.74.18,4.14.3,5.58h-9.12V9.5h9.12v12.42c0,1.38-.12,3.84-.18,5.28h.12c1.14-3.9,4.92-6.24,10.2-6.24,8.46,0,13.44,5.46,13.44,14.7,0,10.02-5.04,15.9-13.5,15.9-5.4,0-9.24-2.28-10.32-6.06ZM67.58,35.96c0-5.04-2.52-8.04-6.78-8.04-4.8,0-7.68,3.06-7.68,8.16v1.38c0,4.5,2.88,7.14,7.74,7.14,4.2,0,6.72-3.18,6.72-8.64Z"/>
        <path class="cls-2" d="M80.18,36.32c0-9.66,6.36-15.36,16.14-15.36s16.14,5.7,16.14,15.36-6.36,15.24-16.14,15.24-16.14-5.64-16.14-15.24ZM103.34,36.32c0-5.28-2.58-8.4-7.02-8.4s-7.02,3.12-7.02,8.4,2.58,8.28,7.02,8.28,7.02-3.06,7.02-8.28Z"/>
        <path class="cls-2" d="M116.18,39.02v-17.58h9.12v16.5c0,4.14,2.28,6.06,6.18,6.06,4.92,0,7.86-3.24,7.86-9.72v-12.84h9.12v29.64h-9.12c.18-2.04.36-4.5.42-7.74h-.12c-1.32,5.7-5.34,8.22-10.98,8.22-7.68,0-12.48-3.84-12.48-12.54Z"/>
        <path class="cls-2" d="M155.6,40.88v-12.36h-4.38v-7.08h3.54c1.38,0,1.86-.78,2.04-2.58l.42-4.14h7.5v6.72h9.48v7.08h-9.48v11.88c0,3.06,1.44,4.02,5.04,4.02,1.26,0,3.12-.18,4.14-.42v6.9c-.78.18-3.3.66-5.76.66-9.24,0-12.54-4.08-12.54-10.68Z"/>
        <path class="cls-2" d="M191.84,21.44h9.12l-.3,7.68h.06c1.38-5.1,4.74-8.16,10.14-8.16,5.7,0,9.36,2.94,10.02,7.74h.06c1.2-4.8,4.44-7.74,10.14-7.74,6.48,0,10.14,4.08,10.14,11.04v19.08h-9.12v-16.98c0-3.48-1.8-5.58-4.92-5.58-3.6,0-6.12,2.76-6.12,8.22v14.34h-9.12v-16.98c0-3.48-1.8-5.58-4.92-5.58-3.54,0-6.06,2.82-6.06,8.4v14.16h-9.12v-29.64Z"/>
        <path class="cls-2" d="M275.18,38h-21.06c.42,4.86,2.88,6.96,6.96,6.96,3.54,0,5.82-1.26,6.06-4.14h8.04c-.18,6.78-5.82,10.74-14.28,10.74-9.84,0-15.96-5.58-15.96-15s6.12-15.6,16.14-15.6c8.28,0,14.1,4.74,14.1,14.46v2.58ZM267.14,32.66c0-3.36-2.28-5.1-6.06-5.1s-6,1.68-6.72,5.58h12.78v-.48Z"/>
      </g>
    </g>
  </g>
</svg>