<svg width="80" height="79" viewBox="0 0 80 79" fill="none" xmlns="http://www.w3.org/2000/svg">
<g clip-path="url(#clip0_274_191)">
<path d="M14.1667 6.36752e-06H65.8333C67.6942 -0.00177002 69.5372 0.368147 71.2568 1.08859C72.9763 1.80903 74.5387 2.86585 75.8546 4.19856C77.1704 5.53128 78.2139 7.11373 78.9252 8.85534C79.6365 10.597 80.0018 12.4636 80 14.3483V64.6517C80.0018 66.5365 79.6365 68.403 78.9252 70.1447C78.2139 71.8863 77.1704 73.4687 75.8546 74.8014C74.5387 76.1342 72.9763 77.191 71.2568 77.9114C69.5372 78.6319 67.6942 79.0018 65.8333 79H14.1667C12.3058 79.0018 10.4628 78.6319 8.74325 77.9114C7.02368 77.191 5.46126 76.1342 4.14542 74.8014C2.82957 73.4687 1.78613 71.8863 1.07481 70.1447C0.363487 68.403 -0.00174761 66.5365 6.28692e-06 64.6517V14.3483C-0.00174761 12.4636 0.363487 10.597 1.07481 8.85534C1.78613 7.11373 2.82957 5.53128 4.14542 4.19856C5.46126 2.86585 7.02368 1.80903 8.74325 1.08859C10.4628 0.368147 12.3058 -0.00177002 14.1667 6.36752e-06V6.36752e-06Z" fill="#FC4698"/>
<path d="M32.1333 47.2648H19.7333L17.2 55.2323C17.1717 55.3769 17.091 55.5056 16.9738 55.593C16.8566 55.6805 16.7114 55.7204 16.5666 55.7049H10.3C9.93331 55.7049 9.83331 55.5024 9.93331 55.0972L20.6666 23.9361C20.7666 23.5985 20.8666 23.2947 21 22.8895C21.1341 22.166 21.2011 21.4313 21.2 20.6951C21.19 20.6105 21.2119 20.5253 21.2614 20.4564C21.3108 20.3876 21.3841 20.3402 21.4666 20.3237H30.1C30.3333 20.3237 30.5 20.425 30.5333 20.5938L42.7 55.1985C42.8 55.5699 42.7 55.7387 42.3666 55.7387H35.4C35.2822 55.7502 35.1641 55.7193 35.0666 55.6513C34.969 55.5834 34.8982 55.4829 34.8666 55.3673L32.1333 47.2648ZM21.6666 40.5464H30.1333C29.9333 39.8374 29.6666 38.9934 29.3666 38.1156C29.0666 37.2378 28.7666 36.225 28.4666 35.2122C28.1666 34.1994 27.8333 33.1528 27.5 32.1062C27.1666 31.0596 26.8666 30.0806 26.6 29.1015C26.3333 28.1224 26.1 27.2784 25.8666 26.4682H25.8C25.5004 27.9396 25.1221 29.3935 24.6666 30.8233C24.1666 32.4438 23.6666 34.1319 23.1333 35.8199C22.7 37.5417 22.1666 39.1284 21.6666 40.5464Z" fill="#ECECED"/>
<path d="M62.4667 44.1587H51.9C52.0261 45.2241 52.3786 46.2492 52.9333 47.1634C53.5224 48.0733 54.3712 48.7799 55.3667 49.189C56.714 49.7726 58.1682 50.0603 59.6333 50.033C60.7973 50.0114 61.9573 49.8872 63.1 49.6617C64.1165 49.5269 65.1129 49.2661 66.0667 48.8852C66.2333 48.7501 66.3333 48.8177 66.3333 49.1553V54.3206C66.3275 54.4579 66.3051 54.594 66.2667 54.7258C66.2064 54.8205 66.1269 54.9011 66.0333 54.9621C64.9672 55.4363 63.8478 55.7764 62.7 55.9749C61.1407 56.2786 59.5541 56.4144 57.9667 56.38C55.4333 56.38 53.3 55.9749 51.5667 55.1984C49.9356 54.4814 48.4961 53.3821 47.3667 51.9912C46.3113 50.6905 45.5287 49.1857 45.0667 47.5685C44.0899 44.2004 44.1364 40.6125 45.2 37.2715C45.7316 35.5811 46.5804 34.0106 47.7 32.6463C48.8023 31.2972 50.1778 30.2034 51.7333 29.439C53.3 28.6625 55.1667 28.3924 57.3 28.3924C59.0774 28.3507 60.8418 28.7081 62.4667 29.439C63.8323 30.0386 65.0334 30.9655 65.9667 32.1399C66.8527 33.293 67.5298 34.596 67.9667 35.9886C68.3906 37.3192 68.6043 38.7093 68.6 40.1074C68.6 40.9177 68.5667 41.6266 68.5333 42.2681C68.5 42.9095 68.4333 43.3822 68.4 43.686C68.3853 43.803 68.3305 43.911 68.2453 43.9912C68.16 44.0714 68.0496 44.1187 67.9333 44.1249C67.7333 44.1249 67.3667 44.1587 66.8333 44.1924C66.1915 44.2663 65.5459 44.3001 64.9 44.2937C64.1333 44.2937 63.3333 44.1587 62.4667 44.1587ZM51.9 39.2296H58.9333C59.8 39.2296 60.4333 39.2296 60.8333 39.1959C61.1073 39.1728 61.371 39.0798 61.6 38.9258V38.5882C61.6013 38.1635 61.5338 37.7415 61.4 37.339C61.1082 36.4152 60.5277 35.6126 59.746 35.0524C58.9643 34.4921 58.0239 34.2045 57.0667 34.233C56.162 34.1817 55.262 34.3966 54.4753 34.8519C53.6886 35.3072 53.0489 35.9834 52.6333 36.7989C52.2444 37.557 51.9959 38.3808 51.9 39.2296V39.2296Z" fill="#ECECED"/>
</g>
<defs>
<clipPath id="clip0_274_191">
<rect width="80" height="79" fill="white"/>
</clipPath>
</defs>
</svg>
