<svg width="75" height="60" viewBox="0 0 75 60" fill="none" xmlns="http://www.w3.org/2000/svg">
<path d="M55.5728 27.1205C53.6103 25.6097 50.9727 24.6896 48.0938 24.688C45.215 24.6896 42.5757 25.6097 40.6131 27.1205C38.6151 28.6594 37.2904 30.8269 37.1386 33.2875C36.985 35.8155 38.1005 38.1674 40.0613 39.9087C42.061 41.6796 44.9095 42.7922 48.0955 42.7922C51.2798 42.7922 54.1266 41.6796 56.1229 39.907C58.0838 38.1674 59.201 35.8155 59.0491 33.2858C58.8972 30.8286 57.5708 28.6594 55.5728 27.1205Z" fill="white"/>
<path d="M74.0324 32.8055C73.5953 29.8051 72.5288 26.9874 70.892 24.4199C69.3884 22.0615 67.4579 19.9959 65.1595 18.2563L65.1629 18.253L65.1005 18.2332C65.0532 18.1921 65.0161 18.1444 64.9671 18.1049L40.9203 0.721582C39.469 -0.412397 37.3428 -0.186918 36.1767 1.23673C35.0123 2.65544 35.2469 4.72754 36.7049 5.86317L46.8096 13.1674H14.3438C12.0235 13.1674 10.1251 15.0189 10.1251 17.282C10.1251 19.545 12.0235 21.3965 14.3438 21.3965H26.4162L1.47327 42.1373C-0.295229 43.6153 -0.501103 46.2157 1.01596 47.9389C1.85127 48.8885 3.03252 49.3757 4.22052 49.3757C5.19252 49.3757 6.1679 49.0498 6.9644 48.3849L22.0743 35.7531C22.0371 37.0813 22.0085 38.2844 22.0152 38.6515C22.0152 44.4382 28.6876 59.2507 48.401 59.2507C62.4376 59.2507 74.186 51.0215 74.186 37.4253C74.3075 35.8881 74.2551 34.3443 74.0324 32.8055ZM63.3235 38.1067C62.6468 39.8957 61.5516 41.5695 60.0582 43.031C57.0038 46.0264 52.7294 47.7216 48.0972 47.7282C43.465 47.7365 39.1872 46.0544 36.1311 43.0672C34.6377 41.6107 33.5408 39.9385 32.8625 38.1528C32.201 36.4 31.9428 34.5402 32.1132 32.6639C32.2786 30.8272 32.8422 29.0776 33.7518 27.4944C34.6445 25.9374 35.873 24.5319 37.3866 23.3403C40.3566 21.0131 44.135 19.754 48.0938 19.7491C52.0527 19.7441 55.8293 20.9933 58.801 23.3106C60.3147 24.4956 61.5415 25.8962 62.4325 27.4499C63.3421 29.0316 63.9074 30.7794 64.0745 32.6145C64.2432 34.4941 63.9867 36.3522 63.3235 38.1067Z" fill="#FC4698"/>
</svg>
