<svg width="81" height="79" viewBox="0 0 81 79" fill="none" xmlns="http://www.w3.org/2000/svg">
<g clip-path="url(#clip0_274_187)">
<path d="M14.3438 6.36752e-06H66.6563C68.5404 -0.00177002 70.4064 0.368147 72.1475 1.08859C73.8885 1.80903 75.4705 2.86585 76.8028 4.19856C78.1351 5.53128 79.1916 7.11373 79.9118 8.85534C80.632 10.597 81.0018 12.4636 81 14.3483V64.6517C81.0018 66.5365 80.632 68.403 79.9118 70.1447C79.1916 71.8863 78.1351 73.4687 76.8028 74.8014C75.4705 76.1342 73.8885 77.191 72.1475 77.9114C70.4064 78.6319 68.5404 79.0018 66.6563 79H14.3438C12.4596 79.0018 10.5936 78.6319 8.85254 77.9114C7.11147 77.191 5.52953 76.1342 4.19723 74.8014C2.86494 73.4687 1.80845 71.8863 1.08824 70.1447C0.368031 68.403 -0.00176946 66.5365 6.36551e-06 64.6517V14.3483C-0.00176946 12.4636 0.368031 10.597 1.08824 8.85534C1.80845 7.11373 2.86494 5.53128 4.19723 4.19856C5.52953 2.86585 7.11147 1.80903 8.85254 1.08859C10.5936 0.368147 12.4596 -0.00177002 14.3438 6.36752e-06V6.36752e-06Z" fill="#FC4698"/>
<path d="M32.0625 64.8208C36.7224 64.8208 40.5 61.042 40.5 56.3806V47.9404H32.0625C27.4026 47.9404 23.625 51.7192 23.625 56.3806C23.625 61.042 27.4026 64.8208 32.0625 64.8208Z" fill="white"/>
<path d="M23.625 39.5002C23.625 34.8389 27.4026 31.0601 32.0625 31.0601H40.5V47.9404H32.0625C27.4026 47.9404 23.625 44.1616 23.625 39.5002Z" fill="white"/>
<path d="M23.625 22.6199C23.625 17.9585 27.4026 14.1797 32.0625 14.1797H40.5V31.06H32.0625C27.4026 31.06 23.625 27.2812 23.625 22.6199Z" fill="white"/>
<path d="M40.5 14.1797H48.9375C53.5974 14.1797 57.375 17.9585 57.375 22.6199C57.375 27.2812 53.5974 31.06 48.9375 31.06H40.5V14.1797Z" fill="white"/>
<path d="M57.375 39.5002C57.375 44.1616 53.5974 47.9404 48.9375 47.9404C44.2776 47.9404 40.5 44.1616 40.5 39.5002C40.5 34.8389 44.2776 31.0601 48.9375 31.0601C53.5974 31.0601 57.375 34.8389 57.375 39.5002Z" fill="white"/>
</g>
<defs>
<clipPath id="clip0_274_187">
<rect width="81" height="79" fill="white"/>
</clipPath>
</defs>
</svg>
