<svg width="81" height="79" viewBox="0 0 81 79" fill="none" xmlns="http://www.w3.org/2000/svg">
<g clip-path="url(#clip0_274_189)">
<path d="M14.3438 6.36752e-06H66.6563C68.5404 -0.00177002 70.4064 0.368147 72.1475 1.08859C73.8885 1.80903 75.4705 2.86585 76.8028 4.19856C78.1351 5.53128 79.1916 7.11373 79.9118 8.85534C80.632 10.597 81.0018 12.4636 81 14.3483V64.6517C81.0018 66.5365 80.632 68.403 79.9118 70.1447C79.1916 71.8863 78.1351 73.4687 76.8028 74.8014C75.4705 76.1342 73.8885 77.191 72.1475 77.9114C70.4064 78.6319 68.5404 79.0018 66.6563 79H14.3438C12.4596 79.0018 10.5936 78.6319 8.85254 77.9114C7.11147 77.191 5.52953 76.1342 4.19723 74.8014C2.86494 73.4687 1.80845 71.8863 1.08824 70.1447C0.368031 68.403 -0.00176946 66.5365 6.36551e-06 64.6517V14.3483C-0.00176946 12.4636 0.368031 10.597 1.08824 8.85534C1.80845 7.11373 2.86494 5.53128 4.19723 4.19856C5.52953 2.86585 7.11147 1.80903 8.85254 1.08859C10.5936 0.368147 12.4596 -0.00177002 14.3438 6.36752e-06V6.36752e-06Z" fill="#FC4698"/>
<path d="M39.2512 47.4H26.6962L24.1312 55.3338C24.1026 55.4784 24.0209 55.607 23.9022 55.6945C23.7836 55.7819 23.6365 55.8219 23.49 55.8064H17.145C16.7737 55.8064 16.6725 55.6039 16.7737 55.1987L27.6412 23.9026C27.7425 23.565 27.8437 23.1936 27.9787 22.7885C28.1146 22.0649 28.1824 21.3302 28.1812 20.594C28.1711 20.5095 28.1933 20.4242 28.2434 20.3553C28.2935 20.2865 28.3677 20.2391 28.4512 20.2227H37.1925C37.4625 20.2227 37.5975 20.3239 37.6312 20.4927L49.95 55.2662C50.0512 55.6376 49.95 55.8064 49.6125 55.8064H42.5587C42.4394 55.8179 42.3199 55.787 42.2211 55.7191C42.1224 55.6511 42.0507 55.5506 42.0187 55.435L39.2512 47.4ZM28.6537 40.5466H37.2262C37.0237 39.8376 36.7537 38.9936 36.45 38.1158C36.1462 37.238 35.8425 36.2252 35.5387 35.2124C35.235 34.1996 34.8975 33.153 34.56 32.1064C34.2225 31.0598 33.9187 30.0808 33.6487 29.1017C33.3787 28.1227 33.1425 27.2786 32.9062 26.4684H32.8387C32.5354 27.9398 32.1523 29.3937 31.6912 30.8235C31.185 32.444 30.6787 34.1321 30.1387 35.8201C29.6662 37.5419 29.16 39.1286 28.6537 40.5466V40.5466Z" fill="white"/>
<path d="M57.3075 25.9955C56.7535 26.0077 56.2026 25.9094 55.6869 25.7066C55.1712 25.5037 54.701 25.2003 54.3037 24.8139C53.5305 23.9682 53.1186 22.8534 53.1562 21.7079C53.1363 21.1498 53.2342 20.5938 53.4435 20.076C53.6529 19.5583 53.969 19.0905 54.3712 18.7032C55.1824 17.9363 56.2588 17.5128 57.375 17.5216C58.6912 17.5216 59.7037 17.9267 60.4462 18.7032C61.1939 19.5219 61.5934 20.5996 61.56 21.7079C61.5806 22.2784 61.4866 22.8471 61.2837 23.3806C61.0808 23.9141 60.7731 24.4014 60.3787 24.8139C59.981 25.2191 59.5011 25.5343 58.9713 25.7381C58.4415 25.942 57.8741 26.0297 57.3075 25.9955V25.9955ZM53.5275 55.2998V29.3041C53.5275 28.9665 53.6625 28.8314 53.9662 28.8314H60.6487C60.9525 28.8314 61.0875 29.0003 61.0875 29.3041V55.2998C61.0875 55.6712 60.9525 55.84 60.6487 55.84H54.0337C53.9628 55.8458 53.8915 55.8356 53.825 55.81C53.7586 55.7844 53.6989 55.7441 53.6502 55.6922C53.6015 55.6403 53.5652 55.578 53.5439 55.5101C53.5227 55.4421 53.5171 55.3703 53.5275 55.2998V55.2998Z" fill="white"/>
</g>
<defs>
<clipPath id="clip0_274_189">
<rect width="81" height="79" fill="white"/>
</clipPath>
</defs>
</svg>
