<svg width="81" height="79" viewBox="0 0 81 79" fill="none" xmlns="http://www.w3.org/2000/svg">
<g clip-path="url(#clip0_274_190)">
<path d="M14.3438 6.36752e-06H66.6563C68.5404 -0.00177002 70.4064 0.368147 72.1475 1.08859C73.8885 1.80903 75.4705 2.86585 76.8028 4.19856C78.1351 5.53128 79.1916 7.11373 79.9118 8.85534C80.632 10.597 81.0018 12.4636 81 14.3483V64.6517C81.0018 66.5365 80.632 68.403 79.9118 70.1447C79.1916 71.8863 78.1351 73.4687 76.8028 74.8014C75.4705 76.1342 73.8885 77.191 72.1475 77.9114C70.4064 78.6319 68.5404 79.0018 66.6563 79H14.3438C12.4596 79.0018 10.5936 78.6319 8.85254 77.9114C7.11147 77.191 5.52953 76.1342 4.19723 74.8014C2.86494 73.4687 1.80845 71.8863 1.08824 70.1447C0.368031 68.403 -0.00176946 66.5365 6.36551e-06 64.6517V14.3483C-0.00176946 12.4636 0.368031 10.597 1.08824 8.85534C1.80845 7.11373 2.86494 5.53128 4.19723 4.19856C5.52953 2.86585 7.11147 1.80903 8.85254 1.08859C10.5936 0.368147 12.4596 -0.00177002 14.3438 6.36752e-06V6.36752e-06Z" fill="#6D53F9"/>
<path d="M29.43 20.6613V55.2998C29.43 55.6711 29.2612 55.8399 28.9575 55.8399H22.3425C22.0387 55.8399 21.9037 55.6711 21.9037 55.2998V20.6613C21.9037 20.3575 22.0725 20.2224 22.3762 20.2224H28.9575C29.0087 20.2144 29.0609 20.2168 29.1111 20.2296C29.1613 20.2424 29.2084 20.2653 29.2494 20.2969C29.2905 20.3285 29.3247 20.3681 29.3499 20.4133C29.3752 20.4586 29.3909 20.5085 29.3962 20.56C29.409 20.5734 29.4186 20.5894 29.4245 20.6069C29.4303 20.6244 29.4322 20.643 29.43 20.6613V20.6613Z" fill="#ECECED"/>
<path d="M48.87 56.3803C46.3683 56.4213 43.889 55.9023 41.6138 54.861C39.4969 53.8708 37.7227 52.2724 36.5175 50.2696C35.2688 48.2102 34.6613 45.6444 34.6613 42.5721C34.6271 40.0737 35.2684 37.6125 36.5175 35.4486C37.7983 33.2495 39.6534 31.4405 41.8838 30.2157C44.2463 28.8991 47.0813 28.2576 50.4225 28.2576C50.6592 28.2549 50.8959 28.2662 51.1313 28.2914C51.435 28.3251 51.7725 28.3251 52.1775 28.3589V17.6905C52.1775 17.4542 52.2788 17.3192 52.515 17.3192H59.3663C59.4419 17.3089 59.5187 17.3275 59.5812 17.3713C59.6437 17.4151 59.6875 17.4809 59.7038 17.5555V49.7632C59.7038 50.3709 59.7375 51.0461 59.7713 51.7888C59.805 52.5315 59.8725 53.173 59.9063 53.7469C59.9135 53.8609 59.8848 53.9744 59.8243 54.0712C59.7637 54.1681 59.6744 54.2436 59.5688 54.2871C57.801 55.0303 55.9558 55.5738 54.0675 55.9076C52.3524 56.2186 50.6131 56.3767 48.87 56.3803ZM52.1775 49.6281V34.7734C51.877 34.7009 51.5728 34.6445 51.2663 34.6046C50.895 34.5709 50.5238 34.5371 50.1525 34.5371C48.8296 34.5222 47.5222 34.8231 46.3388 35.4149C45.1855 35.9897 44.198 36.8497 43.47 37.9132C42.7275 38.9935 42.3563 40.4452 42.3563 42.2008C42.3269 43.3857 42.5215 44.5655 42.93 45.6781C43.2564 46.5779 43.7747 47.3958 44.4488 48.0751C45.0994 48.6963 45.8849 49.1585 46.7438 49.4256C47.6478 49.7217 48.5937 49.87 49.545 49.8644C50.0513 49.8644 50.5238 49.8307 50.9625 49.7969C51.3749 49.8287 51.7894 49.7712 52.1775 49.6281V49.6281Z" fill="#ECECED"/>
</g>
<defs>
<clipPath id="clip0_274_190">
<rect width="81" height="79" fill="white"/>
</clipPath>
</defs>
</svg>
