<?xml version="1.0" encoding="UTF-8"?>
<svg id="Layer_2" data-name="Layer 2" xmlns="http://www.w3.org/2000/svg" viewBox="0 0 101.95 101.95">
  <defs>
    <style>
      .cls-1 {
        fill: #fbd8ee;
        stroke: #6d53f9;
        stroke-miterlimit: 10;
        stroke-width: 3px;
      }

      .cls-2 {
        fill: #fc4698;
      }
    </style>
  </defs>
  <g id="ENNU_logo" data-name="ENNU logo">
    <g>
      <rect class="cls-1" x="1.5" y="1.5" width="98.95" height="98.95" rx="13.47" ry="13.47"/>
      <path class="cls-2" d="M20.91,8.44h28.02v11.88h-24.66v4.86h20.46v5.94h-20.46v4.92h25.14c0,6.56-5.32,11.88-11.88,11.88H8.44s0-27,0-27c0-6.89,5.59-12.48,12.48-12.48Z"/>
      <path class="cls-2" d="M52.54,8.44h21.54l7.14,18.78h.12l-.3-18.78h0c6.89,0,12.48,5.59,12.48,12.48v27h-20.52l-8.46-22.5h-.12l.72,22.5h-.72c-6.56,0-11.88-5.32-11.88-11.88V8.44Z"/>
      <path class="cls-2" d="M8.44,53.44h21.54l7.14,18.78h.12l-.3-18.78h.6c6.56,0,11.88,5.32,11.88,11.88v27.6h-20.52l-8.46-22.5h-.12l.72,22.5h-.12c-6.89,0-12.48-5.59-12.48-12.48v-27Z"/>
      <path class="cls-2" d="M52.54,76.35v-11.04c0-6.56,5.32-11.88,11.88-11.88h5.22v21.6c0,3.96,2.04,5.4,5.22,5.4s5.16-1.44,5.16-5.4v-21.6h13.5v22.92c0,12.06-8.1,17.16-20.46,17.16s-20.52-5.1-20.52-17.16Z"/>
    </g>
  </g>
</svg>