<svg width="81" height="79" viewBox="0 0 81 79" fill="none" xmlns="http://www.w3.org/2000/svg">
<g clip-path="url(#clip0_274_188)">
<path d="M14.3438 6.36752e-06H66.6563C68.5404 -0.00177002 70.4064 0.368147 72.1475 1.08859C73.8885 1.80903 75.4705 2.86585 76.8028 4.19856C78.1351 5.53128 79.1916 7.11373 79.9118 8.85534C80.632 10.597 81.0018 12.4636 81 14.3483V64.6517C81.0018 66.5365 80.632 68.403 79.9118 70.1447C79.1916 71.8863 78.1351 73.4687 76.8028 74.8014C75.4705 76.1342 73.8885 77.191 72.1475 77.9114C70.4064 78.6319 68.5404 79.0018 66.6563 79H14.3438C12.4596 79.0018 10.5936 78.6319 8.85254 77.9114C7.11147 77.191 5.52953 76.1342 4.19723 74.8014C2.86494 73.4687 1.80845 71.8863 1.08824 70.1447C0.368031 68.403 -0.00176946 66.5365 6.36551e-06 64.6517V14.3483C-0.00176946 12.4636 0.368031 10.597 1.08824 8.85534C1.80845 7.11373 2.86494 5.53128 4.19723 4.19856C5.52953 2.86585 7.11147 1.80903 8.85254 1.08859C10.5936 0.368147 12.4596 -0.00177002 14.3438 6.36752e-06V6.36752e-06Z" fill="#6D53F9"/>
<path d="M18.225 55.4011V20.6613C18.225 20.425 18.3262 20.29 18.5625 20.29C19.1362 20.29 19.6762 20.29 20.4525 20.2562C21.2287 20.2224 22.1062 20.2224 23.0175 20.1887C23.9287 20.1549 24.9075 20.1549 25.9537 20.1212C27 20.0874 28.0125 20.0874 29.025 20.0874C31.7925 20.0874 34.0875 20.425 35.9775 21.134C37.6717 21.7095 39.2166 22.6552 40.5 23.9024C41.5875 24.9938 42.4278 26.3063 42.9637 27.7511C43.4746 29.158 43.7373 30.6431 43.74 32.14C43.74 35.0434 43.065 37.4404 41.715 39.331C40.3587 41.219 38.4651 42.6543 36.2812 43.4498C33.9862 44.2938 31.455 44.5977 28.6875 44.5977C27.8775 44.5977 27.3375 44.5977 27 44.5639C26.6625 44.5301 26.19 44.5301 25.5487 44.5301V55.3673C25.5563 55.4229 25.5526 55.4794 25.5379 55.5335C25.5231 55.5876 25.4977 55.6382 25.4631 55.6822C25.4285 55.7263 25.3853 55.763 25.3363 55.7901C25.2872 55.8172 25.2332 55.8341 25.1775 55.84H18.63C18.36 55.84 18.225 55.7049 18.225 55.4011ZM25.5825 26.8058V38.1494C26.055 38.1831 26.4937 38.2169 26.8987 38.2169H28.6875C30.005 38.2185 31.3147 38.0134 32.5687 37.6092C33.6446 37.2927 34.6059 36.6712 35.3362 35.8199C36.045 34.9759 36.3825 33.828 36.3825 32.3425C36.4142 31.2875 36.145 30.2453 35.6062 29.3378C35.0435 28.4613 34.2159 27.7871 33.2437 27.4135C31.9767 26.9171 30.621 26.6872 29.2612 26.7383C28.3837 26.7383 27.6075 26.7383 26.9662 26.772C26.5049 26.7419 26.0418 26.7531 25.5825 26.8058V26.8058Z" fill="#ECECED"/>
<path d="M64.8 36.0899C63.7809 35.553 62.6896 35.1664 61.56 34.942C60.3193 34.6609 59.052 34.5138 57.78 34.5031C57.0969 34.4796 56.4142 34.5592 55.755 34.7394C55.3346 34.827 54.9617 35.0676 54.7087 35.4147C54.5382 35.6886 54.4449 36.0036 54.4387 36.3262C54.4544 36.6474 54.5727 36.9551 54.7762 37.204C55.0961 37.5793 55.4858 37.8889 55.9237 38.1155C56.7 38.5206 57.51 38.892 58.32 39.2296C60.1434 39.8437 61.888 40.6709 63.5175 41.6941C64.6258 42.3913 65.5424 43.3545 66.1837 44.4963C66.7261 45.5733 66.9928 46.7681 66.96 47.9736C66.9873 49.5694 66.5282 51.1356 65.6437 52.4638C64.7023 53.8115 63.3888 54.8556 61.8637 55.4685C60.21 56.1775 58.185 56.5488 55.755 56.5488C54.2142 56.5551 52.6767 56.4081 51.165 56.11C49.9746 55.9042 48.817 55.5409 47.7225 55.0296C47.6048 54.9706 47.507 54.8784 47.441 54.7644C47.375 54.6504 47.3438 54.5197 47.3512 54.3882V48.5138C47.3483 48.4561 47.359 48.3985 47.3825 48.3458C47.4059 48.293 47.4415 48.2465 47.4862 48.21C47.5338 48.1822 47.589 48.1706 47.6437 48.1766C47.6984 48.1827 47.7497 48.2062 47.79 48.2437C49.09 49.0104 50.5022 49.5686 51.975 49.898C53.2754 50.2365 54.6138 50.4067 55.9575 50.4044C57.24 50.4044 58.1512 50.2356 58.7587 49.9318C59.0297 49.8066 59.2593 49.6067 59.4207 49.3555C59.5821 49.1044 59.6686 48.8124 59.67 48.5138C59.67 48.0412 59.4 47.6023 58.86 47.1634C58.32 46.7245 57.2062 46.2181 55.5525 45.5766C53.8559 44.9786 52.2448 44.1615 50.76 43.1459C49.7024 42.3919 48.8262 41.4115 48.195 40.2762C47.6564 39.2099 47.3897 38.0269 47.4187 36.8326C47.4237 35.392 47.8204 33.9799 48.5662 32.7476C49.4236 31.3923 50.6542 30.3137 52.11 29.6416C53.6962 28.8313 55.6875 28.46 58.0837 28.46C59.4842 28.4604 60.8828 28.5619 62.2687 28.7638C63.2652 28.8987 64.2405 29.1596 65.1712 29.5403C65.3195 29.5929 65.4409 29.7022 65.5087 29.8441C65.5476 29.9759 65.5703 30.112 65.5762 30.2493V35.7523C65.5768 35.8179 65.5617 35.8827 65.5324 35.9414C65.5031 36 65.4603 36.0509 65.4075 36.0899C65.2111 36.1605 64.9963 36.1605 64.8 36.0899Z" fill="white"/>
</g>
<defs>
<clipPath id="clip0_274_188">
<rect width="81" height="79" fill="white"/>
</clipPath>
</defs>
</svg>
