<svg width="80" height="79" viewBox="0 0 80 79" fill="none" xmlns="http://www.w3.org/2000/svg">
<g clip-path="url(#clip0_274_192)">
<path d="M14.1666 6.36752e-06H65.8333C67.6942 -0.00177002 69.5372 0.368147 71.2567 1.08859C72.9763 1.80903 74.5387 2.86585 75.8546 4.19856C77.1704 5.53128 78.2139 7.11373 78.9252 8.85534C79.6365 10.597 80.0017 12.4636 80 14.3483V64.6517C80.0017 66.5365 79.6365 68.403 78.9252 70.1447C78.2139 71.8863 77.1704 73.4687 75.8546 74.8014C74.5387 76.1342 72.9763 77.191 71.2567 77.9114C69.5372 78.6319 67.6942 79.0018 65.8333 79H14.1666C12.3058 79.0018 10.4628 78.6319 8.74322 77.9114C7.02365 77.191 5.46123 76.1342 4.14538 74.8014C2.82954 73.4687 1.7861 71.8863 1.07478 70.1447C0.363456 68.403 -0.00177813 66.5365 -2.42307e-05 64.6517V14.3483C-0.00177813 12.4636 0.363456 10.597 1.07478 8.85534C1.7861 7.11373 2.82954 5.53128 4.14538 4.19856C5.46123 2.86585 7.02365 1.80903 8.74322 1.08859C10.4628 0.368147 12.3058 -0.00177002 14.1666 6.36752e-06V6.36752e-06Z" fill="#6D53F9"/>
<path d="M19 55.4013V20.6616C19 20.4253 19.1 20.2902 19.3333 20.2902C19.9 20.2902 20.4333 20.2902 21.2 20.2564C21.9667 20.2227 22.8333 20.2227 23.7333 20.1889C24.6333 20.1552 25.6 20.1552 26.6333 20.1214C27.6667 20.0876 28.6667 20.0876 29.6667 20.0876C32.4 20.0876 34.6667 20.4253 36.5333 21.1342C38.2067 21.7098 39.7325 22.6554 41 23.9026C42.0741 24.994 42.904 26.3066 43.4333 27.7513C43.9379 29.1583 44.1973 30.6433 44.2 32.1402C44.2 35.0436 43.5333 37.4406 42.2 39.3312C40.8605 41.2192 38.9903 42.6546 36.8333 43.45C34.5667 44.2941 32.0667 44.5979 29.3333 44.5979C28.5333 44.5979 28 44.5979 27.6667 44.5641C27.3333 44.5304 26.8667 44.5304 26.2333 44.5304V55.3676C26.2408 55.4231 26.2371 55.4796 26.2226 55.5337C26.2081 55.5878 26.183 55.6384 26.1488 55.6825C26.1146 55.7266 26.072 55.7632 26.0235 55.7903C25.9751 55.8174 25.9217 55.8344 25.8667 55.8402H19.4C19.1333 55.8402 19 55.7052 19 55.4013ZM26.2667 26.806V38.1496C26.7333 38.1834 27.1667 38.2171 27.5667 38.2171H29.3333C30.6346 38.2187 31.9281 38.0137 33.1667 37.6094C34.2293 37.2929 35.1787 36.6715 35.9 35.8201C36.6 34.9761 36.9333 33.8282 36.9333 32.3428C36.9647 31.2878 36.6988 30.2456 36.1667 29.3381C35.6109 28.4615 34.7935 27.7874 33.8333 27.4137C32.582 26.9173 31.243 26.6875 29.9 26.7385C29.0333 26.7385 28.2667 26.7385 27.6333 26.7723C27.1777 26.7421 26.7203 26.7534 26.2667 26.806V26.806Z" fill="white"/>
<path d="M48.8667 28.7643H54.7C54.858 28.7681 55.0107 28.8224 55.1364 28.9194C55.2621 29.0164 55.3544 29.1512 55.4 29.3044C55.5017 29.576 55.5689 29.8597 55.6 30.1484C55.6667 30.4861 55.7333 30.8574 55.7667 31.195C55.8 31.5326 55.8333 31.9715 55.8333 32.4104C56.8342 31.227 58.0436 30.2424 59.4 29.507C60.9494 28.6353 62.6942 28.1818 64.4667 28.1903C64.5215 28.1828 64.5773 28.1865 64.6307 28.2012C64.6841 28.2159 64.7341 28.2413 64.7776 28.276C64.8211 28.3106 64.8573 28.3538 64.8841 28.4028C64.9108 28.4519 64.9276 28.5059 64.9333 28.5617V35.2801C64.9333 35.5502 64.7667 35.6514 64.4 35.6514C63.1908 35.6113 61.9814 35.7248 60.8 35.989C59.8371 36.1904 58.8984 36.496 58 36.9006C57.3551 37.1951 56.7766 37.6202 56.3 38.1497V55.3677C56.3 55.7053 56.1667 55.8403 55.8667 55.8403H49.3C49.2385 55.8508 49.1756 55.8485 49.115 55.8336C49.0544 55.8187 48.9974 55.7915 48.9475 55.7536C48.8976 55.7157 48.8559 55.668 48.8248 55.6132C48.7937 55.5585 48.7739 55.4979 48.7667 55.4352V36.5967C48.7667 35.7865 48.7667 34.9425 48.7333 34.0647C48.7 33.1869 48.7 32.3091 48.6667 31.4313C48.6667 30.6549 48.6 29.9121 48.5333 29.1356C48.5245 29.0957 48.5235 29.0544 48.5305 29.0141C48.5374 28.9739 48.5521 28.9354 48.5738 28.9008C48.5955 28.8663 48.6237 28.8365 48.6568 28.8131C48.6899 28.7896 48.7272 28.773 48.7667 28.7643C48.7667 28.7305 48.8333 28.7305 48.8667 28.7643V28.7643Z" fill="white"/>
</g>
<defs>
<clipPath id="clip0_274_192">
<rect width="80" height="79" fill="white"/>
</clipPath>
</defs>
</svg>
