<?xml version="1.0" encoding="UTF-8"?>
<svg id="Layer_2" data-name="Layer 2" xmlns="http://www.w3.org/2000/svg" viewBox="0 0 405.13 114.38">
  <g id="hero_section_logo" data-name="hero section logo">
    <path d="M384.63,86.1c0-1.41.49-2.6,1.46-3.57s2.16-1.46,3.57-1.46,2.62.48,3.59,1.44,1.44,2.16,1.44,3.59-.49,2.6-1.46,3.57-2.16,1.46-3.57,1.46-2.6-.48-3.57-1.44-1.46-2.16-1.46-3.59ZM393.7,74.92l-2.11-.42,3.34-26.12c.33-2.55.9-4.37,1.72-5.45s2.02-1.62,3.59-1.62c1.45,0,2.63.43,3.53,1.28s1.35,1.96,1.35,3.32c0,.8-.12,1.68-.37,2.65s-.65,2.08-1.21,3.32l-9.84,23.03Z"/>
    <path d="M168.62,0c2.78,0,5.41,1.64,5.41,4.75,0,2.13-.33,4.1-12.78,4.1h-5.9c-13.27,0-20.65,2.95-27.86,9.01-7.05,6.06-13.6,16.06-28.19,40.48-11.14,18.52-19.34,30.32-29.01,38.84-13.77,12.29-27.53,17.21-41.79,17.21-15.89,0-28.51-7.38-28.51-20.32,0-4.75,2.78-8.85,7.87-8.85,3.44,0,6.06,2.62,6.06,6.06s-2.78,5.41-5.24,5.41c-.98,0-1.31,0-2.13-.33,1.15,10.49,10.65,16.06,23.6,16.06,10.98,0,21.14-4.42,32.12-15.73,8.52-8.85,15.57-19.83,24.74-34.58,10.32-16.72,18.35-28.51,26.06-36.38,9.67-10,18.02-14.42,27.2-16.22v-.33c-10.33,0-22.29-1.31-32.28-1.31-17.21,0-32.45,1.64-45.06,4.92-25.73,6.56-40.64,19.17-40.64,34.58,0,13.11,9.34,19.83,25.4,19.83,19.5,0,38.51-11.96,38.51-30.64,0-2.13,0-4.1-.16-5.74h1.96c.16,1.8.16,3.11.16,5.57,0,19.66-19.66,32.77-41.13,32.77-17.86,0-26.71-8.85-26.71-21.8,0-16.55,15.57-31.79,43.59-39.98C80.46,2.46,101.27,0,125.69,0c12.62,0,22.45.98,29.66.98,6.39,0,10.49-.98,13.27-.98Z"/>
    <path d="M136.54,49.57h-5.18c-.29.34-.38.68-.29,1.04.09.36.02.71-.22,1.04h-3.1c-.24.19-.34.37-.29.54s.05.35,0,.54c0,.24-.12.41-.36.5h-1.01c-.05.34-.1.59-.14.76-.05.17-.1.32-.14.47s-.12.26-.22.36l-.43.43h-2.52s-.14-.07-.29-.22v-3.1c-.24-.24-.46-.32-.65-.25-.19.07-.41.06-.65-.04-.14-.19-.26-.34-.36-.43-.1-.1-.18-.22-.25-.36-.07-.14-.12-.3-.14-.47-.02-.17-.08-.42-.18-.76h-2.45v8.93c0,.29.01.58.04.86.02.29.23.48.61.58.43.14.7.07.79-.22.1-.29.26-.55.5-.79.33-.29.65-.6.94-.94.29-.33.6-.65.94-.94.33-.29.72-.5,1.15-.65.43-.14.94-.14,1.51,0,.38.1.79.13,1.22.11.43-.02.86-.04,1.3-.04s.8.05,1.12.14c.31.1.59.41.83.94.24.43.58.85,1.01,1.26.43.41.84.73,1.22.97.53.34.85.66.97.97.12.31.2.71.25,1.19v1.01c0,.34.24.55.72.65.67.1,1.02.32,1.04.68.02.36.04.76.04,1.19.05,1.68.07,3.35.07,5v5c0,1.63-.01,3.25-.04,4.86-.03,1.61-.01,3.23.04,4.86,0,.38.02.72.07,1.01s.34.53.86.72c.33.1.55.25.65.47.1.22.14.44.14.68s-.02.49-.07.76c-.05.26-.07.52-.07.76.05.53-.11.8-.47.83-.36.02-.71.04-1.04.04-1.54,0-3.07-.01-4.61-.04-1.54-.02-3.07-.01-4.61.04-.58,0-1.02-.1-1.33-.29-.31-.19-.42-.62-.32-1.3v-.72c0-.24.04-.46.11-.65.07-.19.2-.35.4-.47.19-.12.5-.18.94-.18.53,0,.94-.02,1.22-.07s.5-.16.65-.32c.14-.17.23-.41.25-.72.02-.31.04-.73.04-1.26v-18.72c0-.24.01-.48.04-.72.02-.24,0-.47-.07-.68-.07-.22-.21-.4-.4-.54-.19-.14-.48-.24-.86-.29-.1,0-.18-.06-.25-.18-.07-.12-.16-.23-.25-.32-.67-.86-1.31-1.28-1.91-1.26-.6.02-1.24.44-1.91,1.26-.34.38-.7.79-1.08,1.22-.38.43-.79.74-1.22.94-.62.24-.97.54-1.04.9-.07.36-.11.78-.11,1.26v17.14c0,.53.01.95.04,1.26.02.31.11.54.25.68s.36.24.65.29c.29.05.7.1,1.22.14.29.05.58.08.86.11.29.02.46.25.5.68.05.38.1.79.14,1.22.05.43-.05.84-.29,1.22-.14.24-.32.36-.54.36h-11.05c-.34,0-.53-.19-.58-.58-.1-.53-.18-1.09-.25-1.69-.07-.6.16-.97.68-1.12.38-.14.66-.3.83-.47s.28-.36.32-.58c.05-.22.06-.44.04-.68-.02-.24-.04-.48-.04-.72.05-1.06.06-2.11.04-3.17-.02-1.06-.04-2.14-.04-3.24v-29.95c0-.29.01-.58.04-.86.02-.29.01-.55-.04-.79-.05-.24-.17-.47-.36-.68-.19-.22-.5-.35-.94-.4-.24-.05-.37-.23-.4-.54-.02-.31.01-.49.11-.54.34-.1.61-.29.83-.58s.43-.58.65-.86.46-.53.72-.72c.26-.19.64-.24,1.12-.14.53.1.95.05,1.26-.14.31-.19.59-.6.83-1.22.1-.24.23-.41.4-.5.17-.1.37-.14.61-.14s.49.02.76.07.52.07.76.07c.53,0,.8.18.83.54.02.36.04.71.04,1.04v4.1h6.19c0-.24.01-.43.04-.58.02-.14.01-.29-.04-.43,0-.29.14-.46.43-.5.24-.05.44-.06.61-.04.17.02.35-.06.54-.25.14-.14.25-.31.32-.5.07-.19.15-.55.25-1.08.19-.19.38-.26.58-.22.19.05.38.07.58.07.38-.1.74-.1,1.08,0,.19,0,.4-.02.61-.07.22-.05.44.03.68.22v3.17c.29.24.59.34.9.29.31-.05.61-.07.9-.07.24.05.49.06.76.04.26-.02.51-.04.76-.04.14.14.23.3.25.47.02.17.04.34.04.5v.5c0,.17.05.35.14.54h3.1c.24.24.35.49.32.76-.02.26-.08.52-.18.76ZM129.55,49.35c-.1-.19-.11-.4-.04-.61.07-.22.01-.4-.18-.54-.77-.05-1.27-.2-1.51-.47-.24-.26-.38-.8-.43-1.62-.14-.05-.29-.07-.43-.07-.43,0-.68.04-.76.11-.07.07-.16.32-.25.76-.05.67-.41,1.08-1.08,1.22-.14.05-.3.05-.47,0-.17-.05-.35.02-.54.22,0,.38-.01.79-.04,1.22-.02.43.01.84.11,1.22.05.19.16.36.32.5.17.14.32.26.47.36.19.1.35.08.47-.04.12-.12.25-.23.4-.32.14-.1.24-.22.29-.36.05-.14.07-.29.07-.43v-.43c0-.14.07-.29.22-.43h3.02s.1-.04.14-.11c.05-.07.12-.13.22-.18Z"/>
    <path d="M181.32,84.91c-1.12,3.75-4,5.62-8.61,5.62h-13.32c-3.8,0-5.7-1.22-5.7-3.66-2.55,2.91-5.7,4.36-9.42,4.36-2.74,0-4.97-.84-6.68-2.53-1.71-1.69-2.57-3.89-2.57-6.61,0-4.9,1.88-8.77,5.62-11.6,3.4-2.58,7.61-3.87,12.62-3.87h20.07l-6.61,18.28h14.59ZM158.64,72.25h-7.77l-2.46,8.19c-.14.52-.21.98-.21,1.41,0,2.04,1.99,3.06,5.98,3.06l4.46-12.66Z"/>
    <path d="M213.86,55.59l-.77.77-.77.28-1.27,1.12-1.69.21c-1.27-.73-3.45-1.27-6.55-1.62h-2.36c-.28,0-.7.09-1.27.28l-.49,1.48h-.28l-.28.77-.77.77.28.28-.49.49v.56l.49.98-.28.28c.07.3.01.79-.18,1.44s-.39,1.11-.6,1.37v.28c-.26.16-.64.65-1.16,1.46s-.97,1.33-1.37,1.56c-.05.63-.14,1.58-.28,2.85l-.77,1.05c-.12.61-.19,1.45-.21,2.53l1.76-.49.28-.28h.28l2.04-1.48v-.28c.89-.38,1.57-.54,2.04-.49v-.56h1.06l.7-.49,1.87-.28,1.05.28.99.77c.33.59.49,1.43.49,2.53h-.21v.56l-.77.49.07,1.2c-.42.52-.87,1.57-1.34,3.16-.45,1.48-.97,2.51-1.58,3.09.16,1.17-.19,2.38-1.05,3.62h-.21l-.77.98c-.63.35-1.34.8-2.11,1.34v.7l-.77.56v.21l-2.04.63c-.89.26-1.59.37-2.11.35l-.91-.7c-.56.19-1.01.28-1.34.28-1.95,0-3.41-.35-4.39-1.05l-.21-.28-.28.28v.28h-.28v.21l-.49.28-.21.49-.28.28h-.28v.28l-.98.21-.28.28-1.27.49-1.55-.21-.28-1.05-.49-.28v-.49l.28-.28,1.27-.49c1.17-1.57,1.76-2.6,1.76-3.09l-.21-2.04.77-2.07c.33-.23,1.08-1.17,2.25-2.81-.14-.7-.21-1.12-.21-1.27s.07-.56.21-1.27l.28-.28v-.28l.28-.49v-.28h.21v-.21c.45-.33,1.09-.84,1.93-1.55l.07-.42.77-1.05c.19-.56.4-2.05.63-4.46h.21c.12-.56.35-1.36.7-2.39l-.14-.42c.75-.82,1.34-1.69,1.76-2.6-.02-.14-.04-.28-.04-.42,0-.42.14-1.04.42-1.85s.42-1.33.42-1.56c0-.09-.01-.18-.04-.25h.28c.21-.52.28-.94.21-1.27h.28c.7-.59,1.73-1.45,3.09-2.6l2.32-.7,1.76.21.49-.21h1.58l.56-.32.77.53h1.27l1.55.77h3.02c.52,0,1.03-.26,1.55-.77v-.21l1.27-.32.98.21c.09.4.21,1.02.35,1.86ZM198.92,75.66l-.14-1.05-.63-.77c-.54.26-1.34.68-2.39,1.27l-.42.49c-1.29.52-2.39,1.29-3.31,2.32h-.28l-.21.49-.56.28v.49h-.21l-.56.56-.35.84-.91.91v.49l-.49,1.05v.53c-.33.49-.49.94-.49,1.34v3.02l.21.28.77.28c1.15-.26,2.44-.35,3.87-.28.47-.38,1.15-.8,2.04-1.27v-.28c.12-.16.28-.42.49-.77.3-.77.8-1.93,1.48-3.48.28-.4.66-1.03,1.12-1.9.19-.91.47-2.23.84-3.94l-.07-.28.21-.63Z"/>
    <path d="M236.6,91.32c-5.47,0-10.3-3.89-10.8-5.83.94-1.94,1.22-7.34.29-9.65-.22-.58-1.01-.36-.79.22,2.09,6.55-.72,14.83-8.21,15.19-10.8.5-11.95-12.31-9.87-20.74,1.58-6.48,4.61-13.97,9.87-18.07.36-.36-.22-.86-.65-.65-1.66.86-4.61,4.46-5.69,5.98-5.54-8.57.14-19.87,10.95-19.51,4.97.14,7.71,5.47,7.42,13.75-.14,3.1-2.38,12.24-4.9,17.14-.29.58.65,1.01.86.43,2.23-5.98,7.27-15.99,15.48-16.06,3.31,0,6.55.94,7.85,4.1,1.44,3.6-.22,7.63-4.46,10.37-3.38,2.16-8.28,3.17-12.31,3.17-.72,0-.86.79-.07.79,6.48,0,12.82,3.38,14.26,8.07,1.01,3.31-.22,7.63-3.46,9.65-1.87,1.15-3.89,1.66-5.76,1.66Z"/>
    <path d="M270.65,54.53h14.4v10.8h3.6v3.6h7.2v-3.6h3.6v-10.8h14.4v14.4h-3.6v3.6h-3.6v3.6h-7.2v14.4h-14.4v-14.4h-7.2v-3.6h-3.6v-3.6h-3.6v-14.4Z"/>
    <path d="M313.85,75.59c0-10.98,5.04-15.72,12.96-15.72s12.96,4.74,12.96,15.66-5.04,15.66-12.96,15.66-12.96-4.74-12.96-15.6ZM335.86,75.53c0-7.62-1.74-14.88-9.06-14.88s-9.06,7.26-9.06,14.94,1.74,14.82,9.06,14.82,9.06-7.26,9.06-14.88Z"/>
    <path d="M371.26,90.53h-4.5v-9h-4.5v4.5h-4.5v4.5h-9v-4.5h-4.5v-18h-4.5v-4.5h4.5v-4.5h4.5v-4.5h4.5v27h9v-4.5h4.5v-18h4.5v-4.5h4.5v27h4.5v4.5h-4.5v4.5h-4.5Z"/>
  </g>
</svg>