<svg width="69" height="66" viewBox="0 0 69 66" fill="none" xmlns="http://www.w3.org/2000/svg">
<path d="M68.309 11.6186V54.0482C68.309 56.1384 66.9594 57.9982 64.9265 58.6894L49.859 65.5032L51.2257 47.6459V18.0209L49.859 0.163574L64.9265 6.97732C66.9594 7.66857 68.309 9.52837 68.309 11.6186Z" fill="#6D53F9"/>
<path d="M8.51734 49.1208L51.2257 18.0211V2.14379C51.2257 0.172082 48.6939 -0.749585 47.3392 0.728373L1.09976 41.4562C-0.437742 42.8222 -0.350618 45.1873 1.28255 46.4463C1.28255 46.4463 3.54438 48.474 4.36267 49.0369C5.62001 49.9009 7.27197 49.9997 8.51734 49.1208Z" fill="#6D53F9"/>
<path d="M8.51734 16.5465L51.2257 47.6462V63.5235C51.2257 65.4953 48.6939 66.4169 47.3392 64.939L1.09976 24.2112C-0.437742 22.8451 -0.350618 20.4801 1.28255 19.221C1.28255 19.221 3.54438 17.1933 4.36267 16.6305C5.62001 15.7664 7.27197 15.6677 8.51734 16.5465Z" fill="#6D53F9"/>
</svg>
