<?xml version="1.0" encoding="UTF-8"?>
<svg id="Layer_2" data-name="Layer 2" xmlns="http://www.w3.org/2000/svg" viewBox="0 0 172.18 61.06">
  <defs>
    <style>
      .cls-1 {
        fill: #fbd8ee;
        stroke: #6d53f9;
        stroke-miterlimit: 10;
        stroke-width: 3px;
      }

      .cls-2 {
        fill: #fc4698;
      }
    </style>
  </defs>
  <g id="hero_section_logo" data-name="hero section logo">
    <g>
      <path class="cls-1" d="M168.96,46.12l-8.87-11.25,7.62-7.87c2.23-2.31,2.87-5.73,1.62-8.68-1.25-2.96-4.15-4.88-7.37-4.88h-11.1c-1.71,0-3.36.55-4.72,1.54v-5.48c0-4.42-3.58-8-8-8h-9.12c-4.42,0-8,3.58-8,8v4.26c-1.73-.52-3.61-.8-5.62-.8-2.48,0-4.76.39-6.82,1.15-1-.44-2.09-.67-3.2-.67h-9.12c-2.58,0-4.88,1.23-6.34,3.13-3.79-2.32-8.48-3.61-13.82-3.61-4.63,0-8.77.97-12.26,2.74-1.48-1.43-3.47-2.26-5.56-2.26h-8.52c-2.06,0-3.96.78-5.4,2.1-1.44-1.31-3.35-2.1-5.4-2.1h-9.06c-2.05,0-3.96.78-5.4,2.1-1.44-1.31-3.34-2.1-5.4-2.1h-9.6c-2.5,0-4.86,1.17-6.37,3.16-1.51,1.99-2.01,4.58-1.33,6.99l8.28,29.64c.97,3.46,4.12,5.85,7.71,5.85h10.8c1.91,0,3.7-.68,5.1-1.84,1.4,1.16,3.18,1.84,5.1,1.84h11.22c3.59,0,6.74-2.39,7.71-5.85l.22-.78c4.25,4.5,10.55,7.11,18.18,7.11,5.34,0,10.04-1.28,13.83-3.6,1.46,1.89,3.75,3.12,6.33,3.12h9.12c4.42,0,8-3.58,8-8v-5.26c.95.39,1.99.6,3.04.6h4.6v4.66c0,4.42,3.58,8,8,8h9.12c2.54,0,4.8-1.18,6.27-3.03,1.51,1.91,3.82,3.03,6.27,3.03h12c3.06,0,5.86-1.75,7.2-4.51,1.34-2.76.98-6.04-.92-8.44Z"/>
      <g>
        <path class="cls-2" d="M9.5,21.44h9.6l4.98,20.82h.12l5.7-20.82h9.06l5.52,20.82h.06l5.22-20.82h8.52l-8.28,29.64h-11.22l-4.86-19.5h-.18l-5.16,19.5h-10.8l-8.28-29.64Z"/>
        <path class="cls-2" d="M59.96,36.32c0-9.66,6.36-15.36,16.14-15.36s16.14,5.7,16.14,15.36-6.36,15.24-16.14,15.24-16.14-5.64-16.14-15.24ZM83.12,36.32c0-5.28-2.58-8.4-7.02-8.4s-7.02,3.12-7.02,8.4,2.58,8.28,7.02,8.28,7.02-3.06,7.02-8.28Z"/>
        <path class="cls-2" d="M96.26,21.44h9.12l-.36,8.46h.12c1.26-5.64,4.44-8.94,10.26-8.94s9.6,3.9,9.6,11.58c0,1.68-.18,4.32-.3,5.88h-8.28c.12-1.44.18-2.94.18-3.84,0-4.32-1.74-6.06-4.62-6.06-3.9,0-6.6,3.18-6.6,9.78v12.78h-9.12v-29.64Z"/>
        <path class="cls-2" d="M129.02,9.5h9.12v26.22h.06l12.66-14.28h11.1l-12.48,12.9,13.2,16.74h-12l-7.74-10.92-4.8,4.86v6.06h-9.12V9.5Z"/>
      </g>
    </g>
  </g>
</svg>