<?xml version="1.0" encoding="UTF-8"?>
<svg id="Layer_2" data-name="Layer 2" xmlns="http://www.w3.org/2000/svg" viewBox="0 0 215.92 61.06">
  <defs>
    <style>
      .cls-1 {
        fill: #fbd8ee;
      }

      .cls-2 {
        fill: #fc4698;
        stroke: #6d53f9;
        stroke-miterlimit: 10;
        stroke-width: 3px;
      }
    </style>
  </defs>
  <g id="hero_section_logo" data-name="hero section logo">
    <g>
      <path class="cls-2" d="M211.91,36.27l2.37-17.28c.05-.36.07-.72.07-1.09v-7.14c0-4.42-3.58-8-8-8h-8.88c-2.52,0-4.76,1.17-6.23,2.98-3.34-1.91-7.38-2.98-11.95-2.98-9.15,0-16.1,4.07-19.26,10.68h-9.18c-1.71,0-3.36.55-4.72,1.54v-5.48c0-4.42-3.58-8-8-8h-9.12c-4.42,0-8,3.58-8,8v4.26c-1.73-.52-3.61-.8-5.62-.8-2.48,0-4.76.39-6.82,1.15-1-.44-2.09-.67-3.2-.67h-9.12c-2.58,0-4.88,1.23-6.34,3.13-3.79-2.32-8.48-3.61-13.82-3.61-4.63,0-8.77.97-12.26,2.74-1.48-1.43-3.47-2.26-5.56-2.26h-8.52c-2.06,0-3.96.78-5.4,2.1-1.44-1.31-3.35-2.1-5.4-2.1h-9.06c-2.05,0-3.96.78-5.4,2.1-1.44-1.31-3.34-2.1-5.4-2.1h-9.6c-2.5,0-4.86,1.17-6.37,3.16-1.51,1.99-2.01,4.58-1.33,6.99l8.28,29.64c.97,3.46,4.12,5.85,7.71,5.85h10.8c1.91,0,3.7-.68,5.1-1.84,1.4,1.16,3.18,1.84,5.1,1.84h11.22c3.59,0,6.74-2.39,7.71-5.85l.22-.78c4.25,4.5,10.55,7.11,18.18,7.11,5.34,0,10.04-1.28,13.83-3.6,1.46,1.89,3.75,3.12,6.33,3.12h9.12c4.42,0,8-3.58,8-8v-5.26c.95.39,1.99.6,3.04.6h4.6v4.66c0,4.42,3.58,8,8,8h9.12c2.54,0,4.8-1.18,6.27-3.03,1.51,1.91,3.82,3.03,6.27,3.03h12c.78,0,1.55-.12,2.28-.33.72.22,1.49.33,2.28.33h8.88c4.42,0,8-3.58,8-8v-4.83c1.9-.26,3.69-.79,5.36-1.57v6.4c0,4.42,3.58,8,8,8h8.94c4.42,0,8-3.58,8-8v-9c0-2.29-.96-4.35-2.5-5.81ZM160.09,34.88l.11-.11v.25l-.11-.14Z"/>
      <path class="cls-1" d="M9.5,21.44h9.6l4.98,20.82h.12l5.7-20.82h9.06l5.52,20.82h.06l5.22-20.82h8.52l-8.28,29.64h-11.22l-4.86-19.5h-.18l-5.16,19.5h-10.8l-8.28-29.64Z"/>
      <path class="cls-1" d="M59.96,36.32c0-9.66,6.36-15.36,16.14-15.36s16.14,5.7,16.14,15.36-6.36,15.24-16.14,15.24-16.14-5.64-16.14-15.24ZM83.12,36.32c0-5.28-2.58-8.4-7.02-8.4s-7.02,3.12-7.02,8.4,2.58,8.28,7.02,8.28,7.02-3.06,7.02-8.28Z"/>
      <path class="cls-1" d="M96.26,21.44h9.12l-.36,8.46h.12c1.26-5.64,4.44-8.94,10.26-8.94s9.6,3.9,9.6,11.58c0,1.68-.18,4.32-.3,5.88h-8.28c.12-1.44.18-2.94.18-3.84,0-4.32-1.74-6.06-4.62-6.06-3.9,0-6.6,3.18-6.6,9.78v12.78h-9.12v-29.64Z"/>
      <path class="cls-1" d="M129.02,9.5h9.12v26.22h.06l12.66-14.28h11.1l-12.48,12.9,13.2,16.74h-12l-7.74-10.92-4.8,4.86v6.06h-9.12V9.5Z"/>
      <path class="cls-1" d="M168.2,29h6.36c.6,2.4,2.28,3.54,5.16,3.54s6-2.4,6-7.98c0-4.62-2.82-7.2-6.42-7.2-3.78,0-5.58,2.4-5.58,5.64,0,.36,0,1.08.06,1.62h-7.44c-.12-.72-.18-1.56-.18-2.58,0-6.72,4.56-11.28,13.14-11.28s13.98,5.16,13.98,13.56-5.46,14.1-11.76,14.1c-3.72,0-6.12-1.86-6.9-4.14h-.12v4.98h-6.3v-10.26ZM167.24,42.08h8.88v9h-8.88v-9Z"/>
      <path class="cls-1" d="M197.48,17.9v-7.14h8.88v7.14l-2.64,19.26h-3.48l-2.76-19.26ZM197.48,42.08h8.94v9h-8.94v-9Z"/>
    </g>
  </g>
</svg>